<svg width="240" height="100" viewBox="0 0 240 100" xmlns="http://www.w3.org/2000/svg">
  <!-- Графический элемент: пламя и буква G -->
  <g>
    <!-- Буква G (стилизованная) -->
    <path d="M 20 50 
             C 20 30, 35 20, 50 25
             C 55 26, 58 28, 58 32
             L 40 32
             L 40 35
             L 58 35
             C 58 40, 55 45, 50 48
             C 35 55, 20 50, 20 50
             Z" 
          fill="#4A90E2" stroke="#2E5C8A" stroke-width="1.5"/>
    
    <!-- Пламя/газовая струя (основное) -->
    <path d="M 58 48 
             Q 62 40, 68 30
             Q 75 18, 82 10
             Q 88 4, 95 8
             Q 90 15, 85 22
             Q 78 32, 72 40
             Q 66 46, 60 50
             Z" 
          fill="#4A90E2" opacity="0.95"/>
    
    <!-- Пламя/газовая струя (внутренний слой) -->
    <path d="M 60 50 
             Q 65 42, 70 32
             Q 76 20, 82 14
             Q 88 10, 92 12
             Q 88 18, 84 24
             Q 78 34, 72 42
             Q 66 48, 62 50
             Z" 
          fill="#7BB3E8" opacity="0.8"/>
    
    <!-- Пламя/газовая струя (светлый слой) -->
    <path d="M 62 50 
             Q 66 44, 70 36
             Q 75 26, 80 18
             Q 85 12, 88 14
             Q 85 20, 81 26
             Q 76 34, 71 42
             Q 67 48, 64 50
             Z" 
          fill="#E8F4FD" opacity="0.9"/>
  </g>
  
  <!-- Текст: ГАЗПРОМ -->
  <text x="105" y="25" font-family="Arial, sans-serif" font-size="14" font-weight="bold" fill="#4A90E2" letter-spacing="1">ГАЗПРОМ</text>
  
  <!-- Текст: ТРАНСГАЗ -->
  <text x="105" y="45" font-family="Arial, sans-serif" font-size="14" font-weight="bold" fill="#4A90E2" letter-spacing="1">ТРАНСГАЗ</text>
  
  <!-- Текст: СУРГУТ -->
  <text x="105" y="65" font-family="Arial, sans-serif" font-size="14" font-weight="bold" fill="#4A90E2" letter-spacing="1">СУРГУТ</text>
</svg>
